<?xml version="1.0" encoding="utf-8"?>
<!-- Generator: Adobe Illustrator 22.1.0, SVG Export Plug-In . SVG Version: 6.00 Build 0)  -->
<svg version="1.1" id="Layer_1" xmlns="http://www.w3.org/2000/svg" xmlns:xlink="http://www.w3.org/1999/xlink" x="0px" y="0px"
	 viewBox="0 0 487 487" style="enable-background:new 0 0 487 487;" xml:space="preserve">
<style type="text/css">
	.st0{fill:#E67C56;}
	.st1{fill:#F58E8A;}
	.st2{fill:#CB2F27;}
	.st3{fill:#913C2C;}
	.st4{fill:#F0514A;}
</style>
<g>
	<g>
		<g>
			<path class="st0" d="M385.1,89.9l-17-16.8l-10,10.1L309.2,122c16.8,26.7,29.9,47.9,46.4,74.9l48.3-68.4l10-10.1l-17-16.8
				L385.1,89.9z"/>
		</g>
		<g>
			<path class="st0" d="M238.3,175.4l77.1,77.6l40.2-56.1c-16.5-27-29.6-48.1-46.4-74.9L238.3,175.4z"/>
		</g>
	</g>
	<g>
		<path class="st0" d="M79.7,295.6C97,358.6,224,415.9,244.8,435.1c12.4-4,24.4-9.7,36.1-17.1c3.8-2.4,7.5-5,11-7.7
			c-12.4-14.4-25.2-28.7-34.3-45.1c-47.7-86.2-66.5-198-66.5-198s-55.6,13.9-86.9,50.9C83.1,243.1,83.5,296.4,79.7,295.6z"/>
	</g>
	<g>
		<path class="st1" d="M257.6,365.2c9.8,16,21.9,30.7,34.3,45.1c29.3-22.1,48.3-51.8,56.5-88.5c9.2-41.2,2.4-80.2-20.3-115.8
			c-22.6-35.6-55-58.3-96.2-67.5c-16.2-3.6-32.1-4.7-47.6-3.4c4.3,18.5,8.7,39.5,6.6,58.5C183.6,257.8,232.1,323.4,257.6,365.2z"/>
	</g>
	<g>
		<path class="st0" d="M48.6,254.9c-2,9-3.2,17.8-3.7,26.6c7.6,8.3,17.4,5.1,26.4,12.6c15.3,12.7,29.6,35.5,45.8,46.8
			c-0.1-0.2-0.3-0.4-0.4-0.6c-14.5-22.8-18.7-46.7-12.8-73.1c5.9-26.4,19.8-46.2,42.6-60.7c15.5-9.9,27.6-14.8,44.6-15.2
			c1.1-24-2.5-37.8-6.8-56.3c-23.8,2.1-46.6,9.9-68.2,23.6C80.5,181.3,57.8,213.7,48.6,254.9z"/>
	</g>
	<g>
		<path class="st1" d="M165.1,438.2c27.7,6.2,54.4,5.1,79.7-3.2c-20.8-19.2-41.4-38.6-65.9-51.8c-29.6-16-43.3-23.1-61.8-42.3
			c-13.6-14.2-30.5-34.1-45.8-46.8c-9-7.5-18.8-4.3-26.4-12.6c-1.7,31.4,6.2,61.4,24,89.2C91.5,406.3,123.9,429,165.1,438.2z"/>
	</g>
	<g>
		<path class="st2" d="M178.3,379.3c-25.3-5.6-44.4-19.1-58.3-41c-13.9-22-17.9-45-12.3-70.3c5.7-25.4,19.1-44.4,41-58.4
			c21.9-13.9,44.9-18,70.2-12.3c25.3,5.6,44.4,19.1,58.4,41c13.9,21.9,18,44.9,12.3,70.2c-5.7,25.4-19.1,44.5-41,58.5
			C226.6,380.9,203.6,385,178.3,379.3z"/>
	</g>
	<g>
		<path class="st3" d="M263.8,221.4c-0.8,1-1.7,2-2.5,2.9c-10.1,16.7,12.7,28.2,9.4,43.2c-5.7,39.9-31.9,100.5-76.8,74.7
			c-22.1-14.4-21.1-33.2-54.6-24.8c-14.7,1.5-13.1-45.8-28.1-61.7c-1.4,3.9-2.6,8.1-3.6,12.4c-5.7,25.4-1.6,48.4,12.3,70.3
			c13.9,22,33,35.4,58.3,41c25.3,5.6,48.3,1.6,70.2-12.4c21.9-14,35.4-33.1,41-58.5c5.6-25.3,1.6-48.3-12.3-70.2
			C273.2,231.9,268.7,226.3,263.8,221.4z"/>
	</g>
	<circle class="st4" cx="206.4" cy="228.1" r="27"/>
	<circle class="st4" cx="146.8" cy="253.1" r="18.6"/>
	<circle class="st4" cx="225.6" cy="251.6" r="13.5"/>
	<path class="st1" d="M432.9,111.4c-2.8,12.6-9.4,22-20.3,28.9c-10.9,6.9-22.3,8.9-34.8,6.1c-12.6-2.8-22-9.4-28.9-20.3
		c-6.9-10.9-8.9-22.2-6.1-34.8c2.8-12.6,9.4-22,20.3-28.9c10.9-6.9,22.2-8.9,34.8-6.1c12.6,2.8,22,9.4,29,20.3
		C433.7,87.5,435.7,98.9,432.9,111.4L432.9,111.4z"/>
	<g>
		<path class="st1" d="M416.4,115.7c7.3,6.5,13.2,14,18.3,22c3.3-4.3,6-9.2,8.2-14.8c6-15.4,5.8-30.2-0.9-45.3
			c-6-13.7-15.3-23.3-28.4-29.5C399.5,68.5,396.8,95.7,416.4,115.7z"/>
	</g>
	<g>
		<path class="st0" d="M364.1,47.2c-4.1,1.8-7.9,3.9-11.3,6.4c0.6,3.5,1.5,6.9,2.7,10.1c8.8,28.2,27.6,65.1,31.8,97.1
			c8.1,0.1,16.1-1.6,24.3-5.2c9.7-4.2,17.4-10.2,23.3-17.9c-5.1-8-11.1-15.5-18.3-22c-19.6-19.9-16.9-47.1-2.7-67.5
			c-1.4-0.7-2.8-1.3-4.3-1.9C394,40.3,379.2,40.6,364.1,47.2z"/>
	</g>
	<g>
		<path class="st1" d="M333.6,125.1c6.6,15.1,17.3,25.4,32.6,31.4c7.1,2.8,14.1,4.2,21,4.3c-4.2-32-23-68.9-31.8-97.1
			c-1.2-3.2-2-6.6-2.7-10.1c-9.1,6.5-15.7,15.1-20.1,26.3C326.7,95.2,327,110,333.6,125.1z"/>
	</g>
</g>
</svg>
